<svg width="28" height="28" viewBox="0 0 28 28" fill="none" xmlns="http://www.w3.org/2000/svg">
<rect width="28" height="28" rx="14" fill="#22DE61"/>
<path d="M20.0543 7.43382V6.93382V7.43382ZM21 8.27271H20.5V8.27271L21 8.27271ZM7 8.27271H6.5V8.27271H7ZM7.94571 7.43382L7.94571 7.93382L7.94571 7.43382ZM20.0543 20.985V20.485V20.485V20.985ZM21 20.1461H21.5V20.1461H21ZM10.2776 18.9156H10.7776V18.9156H10.2776ZM9.33083 18.0767L9.33083 18.5767L9.33134 18.5767L9.33083 18.0767ZM7.36415 18.4035L7.03162 18.7768L7.36415 18.4035ZM11.4641 20.985V21.485V21.485V20.985ZM9.41611 20.2278L9.0844 20.602V20.602L9.41611 20.2278ZM7.47458 11.2353C7.19843 11.2353 6.97458 11.4592 6.97458 11.7353C6.97458 12.0114 7.19843 12.2353 7.47458 12.2353V11.7353V11.2353ZM20.8814 12.2353C21.1575 12.2353 21.3814 12.0114 21.3814 11.7353C21.3814 11.4592 21.1575 11.2353 20.8814 11.2353V11.7353V12.2353ZM10.838 9.17201C10.838 9.44815 11.0619 9.67201 11.338 9.67201C11.6142 9.67201 11.838 9.44815 11.838 9.17201H11.338H10.838ZM11.838 6C11.838 5.72386 11.6142 5.5 11.338 5.5C11.0619 5.5 10.838 5.72386 10.838 6H11.338H11.838ZM16.533 9.17201C16.533 9.44815 16.7568 9.67201 17.033 9.67201C17.3091 9.67201 17.533 9.44815 17.533 9.17201H17.033H16.533ZM17.533 6C17.533 5.72386 17.3091 5.5 17.033 5.5C16.7568 5.5 16.533 5.72386 16.533 6H17.033H17.533ZM11.2712 14.1029C10.995 14.1029 10.7712 14.3268 10.7712 14.6029C10.7712 14.8791 10.995 15.1029 11.2712 15.1029V14.6029V14.1029ZM11.3898 15.1029C11.666 15.1029 11.8898 14.8791 11.8898 14.6029C11.8898 14.3268 11.666 14.1029 11.3898 14.1029V14.6029V15.1029ZM11.2712 16.5294C10.995 16.5294 10.7712 16.7533 10.7712 17.0294C10.7712 17.3056 10.995 17.5294 11.2712 17.5294V17.0294V16.5294ZM11.3898 17.5294C11.666 17.5294 11.8898 17.3056 11.8898 17.0294C11.8898 16.7533 11.666 16.5294 11.3898 16.5294V17.0294V17.5294ZM14.1186 14.1029C13.8425 14.1029 13.6186 14.3268 13.6186 14.6029C13.6186 14.8791 13.8425 15.1029 14.1186 15.1029V14.6029V14.1029ZM14.2373 15.1029C14.5134 15.1029 14.7373 14.8791 14.7373 14.6029C14.7373 14.3268 14.5134 14.1029 14.2373 14.1029V14.6029V15.1029ZM14.1186 16.5294C13.8425 16.5294 13.6186 16.7533 13.6186 17.0294C13.6186 17.3056 13.8425 17.5294 14.1186 17.5294V17.0294V16.5294ZM14.2373 17.5294C14.5134 17.5294 14.7373 17.3056 14.7373 17.0294C14.7373 16.7533 14.5134 16.5294 14.2373 16.5294V17.0294V17.5294ZM16.9661 14.1029C16.69 14.1029 16.4661 14.3268 16.4661 14.6029C16.4661 14.8791 16.69 15.1029 16.9661 15.1029V14.6029V14.1029ZM17.0847 15.1029C17.3609 15.1029 17.5847 14.8791 17.5847 14.6029C17.5847 14.3268 17.3609 14.1029 17.0847 14.1029V14.6029V15.1029ZM16.9661 16.5294C16.69 16.5294 16.4661 16.7533 16.4661 17.0294C16.4661 17.3056 16.69 17.5294 16.9661 17.5294V17.0294V16.5294ZM17.0847 17.5294C17.3609 17.5294 17.5847 17.3056 17.5847 17.0294C17.5847 16.7533 17.3609 16.5294 17.0847 16.5294V17.0294V17.5294ZM20.0543 20.985V20.485H11.4641V20.985V21.485H20.0543V20.985ZM7 17.6085H7.5V8.27271H7H6.5L6.5 17.6085H7ZM7.94571 7.43382L7.94571 7.93382L20.0543 7.93382V7.43382V6.93382L7.94571 6.93382L7.94571 7.43382ZM21 8.27271L20.5 8.27271L20.5 20.1461H21H21.5L21.5 8.27271H21ZM20.0543 7.43382V7.93382C20.3585 7.93382 20.5 8.1402 20.5 8.27271H21L21.5 8.27271C21.5 7.47861 20.7947 6.93382 20.0543 6.93382V7.43382ZM7 8.27271H7.5C7.5 8.1402 7.64153 7.93382 7.94571 7.93382L7.94571 7.43382L7.94571 6.93382C7.20529 6.93382 6.5 7.47861 6.5 8.27271H7ZM9.41611 20.2278L9.74783 19.8537C9.08036 19.2619 8.18862 18.4682 7.69669 18.0301L7.36415 18.4035L7.03162 18.7768C7.52356 19.215 8.41603 20.0094 9.0844 20.602L9.41611 20.2278ZM20.0543 20.985V21.485C20.7947 21.485 21.5 20.9402 21.5 20.1461H21H20.5C20.5 20.2786 20.3585 20.485 20.0543 20.485V20.985ZM10.2776 18.9156H9.77762L9.77762 21H10.2776H10.7776L10.7776 18.9156H10.2776ZM7 18.0767L7 18.5767L9.33083 18.5767L9.33083 18.0767L9.33083 17.5767H7L7 18.0767ZM10.2776 18.9156H10.7776C10.7776 18.1209 10.0713 17.576 9.33033 17.5767L9.33083 18.0767L9.33134 18.5767C9.63583 18.5764 9.77762 18.783 9.77762 18.9156H10.2776ZM7 17.6085H6.5C6.5 18.0572 6.69574 18.4777 7.03162 18.7768L7.36415 18.4035L7.69669 18.0301C7.56557 17.9133 7.5 17.761 7.5 17.6085H7ZM11.4641 20.985V20.485C11.2118 20.485 10.8783 20.4178 10.5452 20.2949C10.2108 20.1717 9.92364 20.0096 9.74783 19.8537L9.41611 20.2278L9.0844 20.602C9.38275 20.8665 9.79189 21.083 10.1992 21.2332C10.6077 21.3838 11.0611 21.485 11.4641 21.485V20.985ZM7.47458 11.7353V12.2353H20.8814V11.7353V11.2353H7.47458V11.7353ZM11.338 9.17201H11.838V6H11.338H10.838V9.17201H11.338ZM17.033 9.17201H17.533V6H17.033H16.533V9.17201H17.033ZM11.2712 14.6029V15.1029H11.3898V14.6029V14.1029H11.2712V14.6029ZM11.2712 17.0294V17.5294H11.3898V17.0294V16.5294H11.2712V17.0294ZM14.1186 14.6029V15.1029H14.2373V14.6029V14.1029H14.1186V14.6029ZM14.1186 17.0294V17.5294H14.2373V17.0294V16.5294H14.1186V17.0294ZM16.9661 14.6029V15.1029H17.0847V14.6029V14.1029H16.9661V14.6029ZM16.9661 17.0294V17.5294H17.0847V17.0294V16.5294H16.9661V17.0294Z" fill="white"/>
</svg>
