<svg width="23" height="26" viewBox="0 0 23 26" fill="none" xmlns="http://www.w3.org/2000/svg">
<path d="M20.7409 2.89421V2.29421V2.89421ZM22.2 4.23643H21.6V4.23643H22.2ZM0.600006 4.23643H6.07967e-06V4.23643H0.600006ZM2.05911 2.89421L2.05911 3.49421L2.05911 2.89421ZM20.7409 24.5761V23.9761V23.9761V24.5761ZM22.2 23.2338H22.8V23.2338H22.2ZM5.6569 21.2651L6.2569 21.2651V21.2651H5.6569ZM4.19615 19.9229L4.19615 20.5229L4.19677 20.5229L4.19615 19.9229ZM1.16184 20.4456L0.754759 20.8864L1.16184 20.4456ZM7.48741 24.5761V25.1761V25.1761V24.5761ZM4.32772 23.3647L3.92161 23.8063V23.8063L4.32772 23.3647ZM1.33221 9.17657C1.00084 9.17657 0.732209 9.4452 0.732209 9.77657C0.732209 10.1079 1.00084 10.3766 1.33221 10.3766V9.77657V9.17657ZM22.017 10.3766C22.3483 10.3766 22.617 10.1079 22.617 9.77657C22.617 9.4452 22.3483 9.17657 22.017 9.17657V9.77657V10.3766ZM6.69298 5.67531C6.69298 6.00668 6.96161 6.27531 7.29298 6.27531C7.62435 6.27531 7.89298 6.00668 7.89298 5.67531H7.29298H6.69298ZM7.89298 0.600098C7.89298 0.268727 7.62435 9.76324e-05 7.29298 9.76324e-05C6.96161 9.76324e-05 6.69298 0.268727 6.69298 0.600098H7.29298H7.89298ZM15.4794 5.67531C15.4794 6.00668 15.7481 6.27531 16.0794 6.27531C16.4108 6.27531 16.6794 6.00668 16.6794 5.67531H16.0794H15.4794ZM16.6794 0.600098C16.6794 0.268727 16.4108 9.76324e-05 16.0794 9.76324e-05C15.7481 9.76324e-05 15.4794 0.268727 15.4794 0.600098H16.0794H16.6794ZM7.18984 13.7648C6.85847 13.7648 6.58984 14.0334 6.58984 14.3648C6.58984 14.6962 6.85847 14.9648 7.18984 14.9648V14.3648V13.7648ZM7.37289 14.9648C7.70426 14.9648 7.97289 14.6962 7.97289 14.3648C7.97289 14.0334 7.70426 13.7648 7.37289 13.7648V14.3648V14.9648ZM7.18984 17.6472C6.85847 17.6472 6.58984 17.9158 6.58984 18.2472C6.58984 18.5785 6.85847 18.8472 7.18984 18.8472V18.2472V17.6472ZM7.37289 18.8472C7.70426 18.8472 7.97289 18.5785 7.97289 18.2472C7.97289 17.9158 7.70426 17.6472 7.37289 17.6472V18.2472V18.8472ZM11.5831 13.7648C11.2517 13.7648 10.9831 14.0334 10.9831 14.3648C10.9831 14.6962 11.2517 14.9648 11.5831 14.9648V14.3648V13.7648ZM11.7661 14.9648C12.0975 14.9648 12.3661 14.6962 12.3661 14.3648C12.3661 14.0334 12.0975 13.7648 11.7661 13.7648V14.3648V14.9648ZM11.5831 17.6472C11.2517 17.6472 10.9831 17.9158 10.9831 18.2472C10.9831 18.5785 11.2517 18.8472 11.5831 18.8472V18.2472V17.6472ZM11.7661 18.8472C12.0975 18.8472 12.3661 18.5785 12.3661 18.2472C12.3661 17.9158 12.0975 17.6472 11.7661 17.6472V18.2472V18.8472ZM15.9763 13.7648C15.6449 13.7648 15.3763 14.0334 15.3763 14.3648C15.3763 14.6962 15.6449 14.9648 15.9763 14.9648V14.3648V13.7648ZM16.1593 14.9648C16.4907 14.9648 16.7593 14.6962 16.7593 14.3648C16.7593 14.0334 16.4907 13.7648 16.1593 13.7648V14.3648V14.9648ZM15.9763 17.6472C15.6449 17.6472 15.3763 17.9158 15.3763 18.2472C15.3763 18.5785 15.6449 18.8472 15.9763 18.8472V18.2472V17.6472ZM16.1593 18.8472C16.4907 18.8472 16.7593 18.5785 16.7593 18.2472C16.7593 17.9158 16.4907 17.6472 16.1593 17.6472V18.2472V18.8472ZM20.7409 24.5761V23.9761H7.48741V24.5761V25.1761H20.7409V24.5761ZM0.600006 19.1737L1.20001 19.1737V4.23643H0.600006H6.07967e-06V19.1737H0.600006ZM2.05911 2.89421L2.05911 3.49421L20.7409 3.49421V2.89421V2.29421L2.05911 2.29421V2.89421ZM22.2 4.23643H21.6L21.6 23.2338H22.2H22.8L22.8 4.23643H22.2ZM20.7409 2.89421V3.49421C21.2635 3.49421 21.6 3.8727 21.6 4.23643H22.2H22.8C22.8 3.1176 21.83 2.29421 20.7409 2.29421V2.89421ZM0.600006 4.23643H1.20001C1.20001 3.8727 1.53649 3.49421 2.05911 3.49421L2.05911 2.89421V2.29421C0.970043 2.29421 6.19888e-06 3.11759 6.07967e-06 4.23643H0.600006ZM4.32772 23.3647L4.73383 22.923C3.70387 21.9759 2.32791 20.7058 1.56893 20.0049L1.16184 20.4456L0.754759 20.8864C1.51376 21.5874 2.89058 22.8583 3.92161 23.8063L4.32772 23.3647ZM20.7409 24.5761V25.1761C21.83 25.1761 22.8 24.3527 22.8 23.2338H22.2H21.6C21.6 23.5976 21.2635 23.9761 20.7409 23.9761V24.5761ZM5.6569 21.2651H5.0569V24.6001H5.6569H6.2569L6.2569 21.2651L5.6569 21.2651ZM0.600006 19.9229L0.600006 20.5229L4.19615 20.5229L4.19615 19.9229L4.19615 19.3229L0.600006 19.3229L0.600006 19.9229ZM5.6569 21.2651H6.2569C6.2569 20.1453 5.2854 19.3217 4.19553 19.3229L4.19615 19.9229L4.19677 20.5229C4.71987 20.5223 5.0569 20.9011 5.0569 21.2651L5.6569 21.2651ZM0.600006 19.1737H6.07967e-06C6.07967e-06 19.8247 0.273454 20.4419 0.754759 20.8864L1.16184 20.4456L1.56893 20.0049C1.32973 19.7839 1.20001 19.4847 1.20001 19.1737L0.600006 19.1737ZM7.48741 24.5761V23.9761C7.07571 23.9761 6.54302 23.8633 6.01709 23.6622C5.49026 23.4607 5.02662 23.1922 4.73383 22.923L4.32772 23.3647L3.92161 23.8063C4.36039 24.2098 4.97111 24.547 5.58849 24.783C6.20678 25.0195 6.88815 25.1761 7.48741 25.1761V24.5761ZM1.33221 9.77657V10.3766H22.017V9.77657V9.17657H1.33221V9.77657ZM7.29298 5.67531H7.89298V0.600098H7.29298H6.69298V5.67531H7.29298ZM16.0794 5.67531H16.6794V0.600098H16.0794H15.4794V5.67531H16.0794ZM7.18984 14.3648V14.9648H7.37289V14.3648V13.7648H7.18984V14.3648ZM7.18984 18.2472V18.8472H7.37289V18.2472V17.6472H7.18984V18.2472ZM11.5831 14.3648V14.9648H11.7661V14.3648V13.7648H11.5831V14.3648ZM11.5831 18.2472V18.8472H11.7661V18.2472V17.6472H11.5831V18.2472ZM15.9763 14.3648V14.9648H16.1593V14.3648V13.7648H15.9763V14.3648ZM15.9763 18.2472V18.8472H16.1593V18.2472V17.6472H15.9763V18.2472Z" fill="#979A9F"/>
</svg>
