<svg width="193" height="213" viewBox="0 0 193 213" fill="none" xmlns="http://www.w3.org/2000/svg">
<path fill-rule="evenodd" clip-rule="evenodd" d="M47.6123 10.7059C48.9639 3.65486 55.7905 -1.04831 62.8604 0.201045L145.91 14.8798C176.91 20.3589 197.236 49.8637 191.311 80.7811L169.239 195.943C167.992 202.452 161.69 206.793 155.164 205.64L55.2988 187.989C57.0293 184.532 58 180.657 58 176.564C58 161.979 45.6878 150.156 30.5 150.156C26.9886 150.156 23.6313 150.789 20.5439 151.941L47.6123 10.7059Z" fill="#28D863"/>
<path d="M102 57.8546C131.271 57.8546 155 81.5835 155 110.855V199.855C155 207.034 149.18 212.855 142 212.855H67.4678C74.0563 204.637 78 194.207 78 182.855C78 156.345 56.5097 134.855 30 134.855C18.6479 134.855 8.21785 138.798 0 145.386V71.8546C0 64.1226 6.26801 57.8546 14 57.8546H102Z" fill="#93EE79"/>
<circle cx="25" cy="186.855" r="21" fill="#28D892"/>
</svg>
