<svg width="22" height="25" viewBox="0 0 22 25" fill="none" xmlns="http://www.w3.org/2000/svg">
<path d="M16.0021 9.7356C16.0021 8.14657 15.3593 6.62262 14.215 5.499C13.0708 4.37538 11.519 3.74414 9.90079 3.74414C8.28263 3.74414 6.73075 4.37538 5.58653 5.499C4.44232 6.62262 3.79951 8.14657 3.79951 9.7356C3.79951 16.7256 0.748871 18.7228 0.748871 18.7228H19.0527C19.0527 18.7228 16.0021 16.7256 16.0021 9.7356Z" stroke="#979A9F" stroke-width="1.4976" stroke-linecap="round" stroke-linejoin="round"/>
<path d="M11.6598 22.7168C11.481 23.0194 11.2244 23.2707 10.9157 23.4453C10.6069 23.6199 10.2569 23.7118 9.90059 23.7118C9.5443 23.7118 9.19426 23.6199 8.88551 23.4453C8.57677 23.2707 8.32017 23.0194 8.14139 22.7168" stroke="#979A9F" stroke-width="1.4976" stroke-linecap="round" stroke-linejoin="round"/>
</svg>
