<svg width="12" height="22" viewBox="0 0 12 22" fill="none" xmlns="http://www.w3.org/2000/svg">
<path d="M9.47173 11.0047L0.360447 19.9738C0.120149 20.2103 0.0030241 20.4888 0.00907135 20.8093C0.0153208 21.13 0.138595 21.4086 0.378893 21.6452C0.619393 21.8817 0.902429 22 1.228 22C1.55357 22 1.83661 21.8817 2.07711 21.6452L11.3556 12.5297C11.5743 12.3144 11.7364 12.0732 11.8419 11.8061C11.9473 11.5389 12 11.2718 12 11.0047C12 10.7376 11.9473 10.4705 11.8419 10.2034C11.7364 9.9363 11.5743 9.69509 11.3556 9.47978L2.07711 0.345826C1.83661 0.109279 1.55045 -0.00591791 1.21863 0.0002339C0.886806 0.00638571 0.600745 0.127735 0.360447 0.364282C0.120149 0.600829 0 0.879447 0 1.20013C0 1.52062 0.120149 1.79914 0.360447 2.03569L9.47173 11.0047Z" fill="#7C7F83"/>
</svg>
