<svg width="24" height="26" viewBox="0 0 24 26" fill="none" xmlns="http://www.w3.org/2000/svg">
<path d="M4.3488 0.749023L0.748802 5.46263V21.9602C0.748802 22.5853 1.00166 23.1848 1.45175 23.6267C1.90183 24.0687 2.51228 24.317 3.1488 24.317H19.9488C20.5853 24.317 21.1958 24.0687 21.6459 23.6267C22.0959 23.1848 22.3488 22.5853 22.3488 21.9602V5.46263L18.7488 0.749023H4.3488Z" stroke="#22DE61" stroke-width="1.4976" stroke-linecap="round" stroke-linejoin="round"/>
<path d="M0.748825 5.4624H22.3488" stroke="#22DE61" stroke-width="1.4976" stroke-linecap="round" stroke-linejoin="round"/>
<path d="M16.3486 10.1763C16.3486 11.4264 15.8429 12.6253 14.9427 13.5093C14.0425 14.3933 12.8216 14.8899 11.5486 14.8899C10.2756 14.8899 9.05467 14.3933 8.15449 13.5093C7.25432 12.6253 6.7486 11.4264 6.7486 10.1763" stroke="#22DE61" stroke-width="1.4976" stroke-linecap="round" stroke-linejoin="round"/>
</svg>
