<svg width="48" height="49" viewBox="0 0 48 49" fill="none" xmlns="http://www.w3.org/2000/svg">
<path d="M25.5 10.0001C32.8178 10.0001 38.75 15.9324 38.75 23.2501V45.5001C38.75 47.2951 37.2949 48.7501 35.5 48.7501H16.8643C18.512 46.6955 19.5 44.0888 19.5 41.2501C19.5 34.6227 14.1274 29.2501 7.5 29.2501C4.66131 29.2501 2.05468 30.2381 1.90735e-06 31.8859V13.5001C1.90735e-06 11.5671 1.56701 10.0001 3.5 10.0001H25.5Z" fill="#96F97A"/>
<circle cx="6.25" cy="42.2501" r="5.25" fill="#22DE61"/>
<path fill-rule="evenodd" clip-rule="evenodd" d="M12.0059 2.65594C12.3254 0.889703 14.015 -0.274001 15.7793 0.0563267L33.0547 3.2907C42.2828 5.01875 48.4085 13.9086 46.7373 23.1471L42.5772 46.1423C42.2822 47.7726 40.7232 48.8475 39.0947 48.5427L14.9385 44.0192C15.371 43.1036 15.6143 42.0776 15.6143 40.9938C15.6142 37.1313 12.536 33.9998 8.73926 33.9997C7.8612 33.9997 7.02199 34.1691 6.25 34.4743L12.0059 2.65594Z" fill="#22DE61"/>
<path d="M22.75 7.00005C31.5865 7.00005 38.75 14.1635 38.75 23V45.5C38.75 47.295 37.2949 48.75 35.5 48.75H16.8643C18.5121 46.8543 19.5 44.4493 19.5 41.8301C19.5 35.7153 14.1274 30.7579 7.5 30.7579C4.66154 30.7579 2.05461 31.6694 1.90735e-06 33.1895V10.5C3.32448e-05 8.56708 1.56702 7.00005 3.5 7.00005H22.75Z" fill="#96F97A"/>
<circle cx="6.25" cy="42.25" r="5.25" fill="#22DE61"/>
</svg>
