<svg width="24" height="24" viewBox="0 0 24 24" fill="none" xmlns="http://www.w3.org/2000/svg">
<g clip-path="url(#clip0_89_465)">
<g clip-path="url(#clip1_89_465)">
<path fill-rule="evenodd" clip-rule="evenodd" d="M23.9189 20.5477C23.8135 20.0413 23.3175 19.7162 22.8109 19.8216C22.3044 19.927 21.9793 20.4231 22.0848 20.9295C22.1456 21.2213 22.0732 21.5203 21.8864 21.7501C21.7782 21.8831 21.537 22.1063 21.1371 22.1063H2.84255C2.44268 22.1063 2.20143 21.8831 2.09324 21.7501C1.90641 21.5203 1.8341 21.2213 1.89484 20.9295C2.86696 16.2603 6.98542 12.8495 11.7415 12.7344C11.8239 12.7376 11.9067 12.7392 11.9898 12.7392C12.0733 12.7392 12.1564 12.7376 12.2391 12.7344C15.5893 12.8148 18.6859 14.5116 20.5611 17.3083C20.8492 17.7381 21.431 17.8528 21.8608 17.5647C22.2905 17.2766 22.4053 16.6947 22.1171 16.2651C20.5802 13.9728 18.3483 12.3059 15.8035 11.4683C17.3543 10.3055 18.3595 8.4527 18.3595 6.36961C18.3595 2.85743 15.5021 0 11.9898 0C8.47761 0 5.62023 2.85743 5.62023 6.36961C5.62023 8.45398 6.62663 10.3077 8.17899 11.4705C6.75669 11.9388 5.42212 12.6674 4.25404 13.6282C2.11216 15.39 0.622938 17.8474 0.0607744 20.5477C-0.115422 21.3939 0.0956704 22.263 0.639798 22.932C1.18126 23.5979 1.98416 23.9797 2.84255 23.9797H21.1371C21.9955 23.9797 22.7984 23.5979 23.3398 22.932C23.884 22.263 24.0951 21.3939 23.9189 20.5477ZM7.49363 6.36924C7.49363 3.89001 9.51059 1.87305 11.9898 1.87305C14.4691 1.87305 16.486 3.89001 16.486 6.36924C16.486 8.77213 14.5913 10.7408 12.2174 10.8597C12.1417 10.8583 12.0658 10.8576 11.9898 10.8576C11.9142 10.8576 11.8386 10.8584 11.7631 10.8598C9.38882 10.7413 7.49363 8.77246 7.49363 6.36924Z" fill="#979A9F"/>
<path d="M23.9189 20.5477L23.8719 20.5575V20.5575L23.9189 20.5477ZM22.8109 19.8216L22.8011 19.7746L22.8011 19.7746L22.8109 19.8216ZM22.0848 20.9295L22.1318 20.9198L22.1318 20.9198L22.0848 20.9295ZM21.8864 21.7501L21.9237 21.7803L21.9237 21.7803L21.8864 21.7501ZM2.09324 21.7501L2.056 21.7803L2.056 21.7803L2.09324 21.7501ZM1.89484 20.9295L1.94183 20.9393H1.94183L1.89484 20.9295ZM11.7415 12.7344L11.7434 12.6864L11.7404 12.6865L11.7415 12.7344ZM12.2391 12.7344L12.2402 12.6863L12.2372 12.6864L12.2391 12.7344ZM20.5611 17.3083L20.601 17.2816L20.601 17.2816L20.5611 17.3083ZM21.8608 17.5647L21.8875 17.6046L21.8875 17.6046L21.8608 17.5647ZM22.1171 16.2651L22.0773 16.2918L22.0773 16.2918L22.1171 16.2651ZM15.8035 11.4683L15.7748 11.4299L15.7011 11.4852L15.7885 11.5139L15.8035 11.4683ZM8.17899 11.4705L8.194 11.5161L8.28148 11.4873L8.20777 11.4321L8.17899 11.4705ZM4.25404 13.6282L4.22355 13.5911H4.22355L4.25404 13.6282ZM0.0607744 20.5477L0.107766 20.5575L0.107767 20.5575L0.0607744 20.5477ZM0.639798 22.932L0.602558 22.9623V22.9623L0.639798 22.932ZM23.3398 22.932L23.3026 22.9018L23.3026 22.9018L23.3398 22.932ZM12.2174 10.8597L12.2165 10.9078L12.2198 10.9077L12.2174 10.8597ZM11.7631 10.8598L11.7607 10.9078L11.764 10.9078L11.7631 10.8598ZM23.9189 20.5477L23.9659 20.5379C23.855 20.0055 23.3337 19.6638 22.8011 19.7746L22.8109 19.8216L22.8207 19.8686C23.3013 19.7686 23.7719 20.077 23.8719 20.5575L23.9189 20.5477ZM22.8109 19.8216L22.8011 19.7746C22.2687 19.8855 21.9269 20.407 22.0378 20.9393L22.0848 20.9295L22.1318 20.9198C22.0317 20.4393 22.3402 19.9686 22.8207 19.8686L22.8109 19.8216ZM22.0848 20.9295L22.0378 20.9393C22.0956 21.217 22.0268 21.5013 21.8492 21.7198L21.8864 21.7501L21.9237 21.7803C22.1196 21.5393 22.1955 21.2256 22.1318 20.9198L22.0848 20.9295ZM21.8864 21.7501L21.8492 21.7198C21.746 21.8467 21.517 22.0583 21.1371 22.0583V22.1063V22.1543C21.5569 22.1543 21.8105 21.9195 21.9237 21.7803L21.8864 21.7501ZM21.1371 22.1063V22.0583H2.84255V22.1063V22.1543H21.1371V22.1063ZM2.84255 22.1063V22.0583C2.46262 22.0583 2.23371 21.8467 2.13048 21.7198L2.09324 21.7501L2.056 21.7803C2.16916 21.9195 2.42274 22.1543 2.84255 22.1543V22.1063ZM2.09324 21.7501L2.13048 21.7198C1.95283 21.5013 1.88401 21.217 1.94183 20.9393L1.89484 20.9295L1.84785 20.9198C1.78418 21.2255 1.85999 21.5393 2.056 21.7803L2.09324 21.7501ZM1.89484 20.9295L1.94183 20.9393C2.90938 16.292 7.00876 12.8969 11.7427 12.7824L11.7415 12.7344L11.7404 12.6865C6.96208 12.802 2.82454 16.2286 1.84785 20.9198L1.89484 20.9295ZM11.7415 12.7344L11.7397 12.7824C11.8227 12.7856 11.906 12.7872 11.9898 12.7872V12.7392V12.6912C11.9073 12.6912 11.8251 12.6896 11.7434 12.6865L11.7415 12.7344ZM11.9898 12.7392V12.7872C12.0739 12.7872 12.1576 12.7856 12.2409 12.7824L12.2391 12.7344L12.2372 12.6864C12.1551 12.6896 12.0727 12.6912 11.9898 12.6912V12.7392ZM12.2391 12.7344L12.2379 12.7824C15.5726 12.8624 18.6547 14.5513 20.5213 17.3351L20.5611 17.3083L20.601 17.2816C18.7171 14.472 15.6061 12.7671 12.2402 12.6864L12.2391 12.7344ZM20.5611 17.3083L20.5213 17.3351C20.8241 17.7868 21.4358 17.9074 21.8875 17.6046L21.8608 17.5647L21.8341 17.5248C21.4263 17.7982 20.8743 17.6893 20.601 17.2816L20.5611 17.3083ZM21.8608 17.5647L21.8875 17.6046C22.3392 17.3017 22.4599 16.69 22.157 16.2383L22.1171 16.2651L22.0773 16.2918C22.3506 16.6995 22.2417 17.2515 21.8341 17.5248L21.8608 17.5647ZM22.1171 16.2651L22.157 16.2383C20.614 13.9371 18.3734 12.2636 15.8186 11.4227L15.8035 11.4683L15.7885 11.5139C18.3232 12.3482 20.5463 14.0085 22.0773 16.2918L22.1171 16.2651ZM15.8035 11.4683L15.8323 11.5067C17.3946 10.3352 18.4075 8.4685 18.4075 6.36961H18.3595H18.3115C18.3115 8.4369 17.3139 10.2757 15.7748 11.4299L15.8035 11.4683ZM18.3595 6.36961H18.4075C18.4075 2.83092 15.5286 -0.048 11.9898 -0.048V0V0.048C15.4756 0.048 18.3115 2.88394 18.3115 6.36961H18.3595ZM11.9898 0V-0.048C8.4511 -0.048 5.57223 2.83092 5.57223 6.36961H5.62023H5.66823C5.66823 2.88394 8.50412 0.048 11.9898 0.048V0ZM5.62023 6.36961H5.57223C5.57223 8.46979 6.58632 10.3375 8.15021 11.5089L8.17899 11.4705L8.20777 11.4321C6.66695 10.2779 5.66823 8.43817 5.66823 6.36961H5.62023ZM8.17899 11.4705L8.16398 11.4249C6.73612 11.895 5.39628 12.6265 4.22355 13.5911L4.25404 13.6282L4.28453 13.6652C5.44796 12.7083 6.77726 11.9825 8.194 11.5161L8.17899 11.4705ZM4.25404 13.6282L4.22355 13.5911C2.07327 15.3598 0.578189 17.8268 0.0137819 20.5379L0.0607744 20.5477L0.107767 20.5575C0.667688 17.8679 2.15105 15.4201 4.28453 13.6652L4.25404 13.6282ZM0.0607744 20.5477L0.0137823 20.5379C-0.165352 21.3982 0.0492933 22.282 0.602558 22.9623L0.639798 22.932L0.677038 22.9018C0.142047 22.2439 -0.0654915 21.3896 0.107766 20.5575L0.0607744 20.5477ZM0.639798 22.932L0.602558 22.9623C1.15314 23.6394 1.96972 24.0277 2.84255 24.0277V23.9797V23.9317C1.9986 23.9317 1.20938 23.5564 0.677038 22.9018L0.639798 22.932ZM2.84255 23.9797V24.0277H21.1371V23.9797V23.9317H2.84255V23.9797ZM21.1371 23.9797V24.0277C22.0099 24.0277 22.8265 23.6394 23.3771 22.9623L23.3398 22.932L23.3026 22.9018C22.7703 23.5564 21.9811 23.9317 21.1371 23.9317V23.9797ZM23.3398 22.932L23.3771 22.9623C23.9304 22.282 24.145 21.3982 23.9659 20.5379L23.9189 20.5477L23.8719 20.5575C24.0452 21.3896 23.8377 22.2439 23.3026 22.9018L23.3398 22.932ZM7.49363 6.36924H7.54163C7.54163 3.91652 9.5371 1.92105 11.9898 1.92105V1.87305V1.82505C9.48408 1.82505 7.44563 3.8635 7.44563 6.36924H7.49363ZM11.9898 1.87305V1.92105C14.4425 1.92105 16.438 3.91652 16.438 6.36924H16.486H16.534C16.534 3.8635 14.4956 1.82505 11.9898 1.82505V1.87305ZM16.486 6.36924H16.438C16.438 8.74642 14.5635 10.6941 12.215 10.8118L12.2174 10.8597L12.2198 10.9077C14.6191 10.7875 16.534 8.79785 16.534 6.36924H16.486ZM12.2174 10.8597L12.2183 10.8117C12.1423 10.8103 12.0661 10.8096 11.9898 10.8096V10.8576V10.9056C12.0655 10.9056 12.1411 10.9063 12.2165 10.9077L12.2174 10.8597ZM11.9898 10.8576V10.8096C11.9139 10.8096 11.838 10.8104 11.7622 10.8118L11.7631 10.8598L11.764 10.9078C11.8393 10.9064 11.9146 10.9056 11.9898 10.9056V10.8576ZM11.7631 10.8598L11.7655 10.8118C9.41662 10.6946 7.54163 8.74674 7.54163 6.36924H7.49363H7.44563C7.44563 8.79818 9.36102 10.788 11.7607 10.9077L11.7631 10.8598Z" fill="white"/>
</g>
</g>
<defs>
<clipPath id="clip0_89_465">
<rect width="23.9797" height="23.9797" fill="white"/>
</clipPath>
<clipPath id="clip1_89_465">
<rect width="23.9797" height="23.9797" fill="white"/>
</clipPath>
</defs>
</svg>
